<?xml version="1.0" standalone="no"?>
<!DOCTYPE svg PUBLIC "-//W3C//DTD SVG 20010904//EN"
 "http://www.w3.org/TR/2001/REC-SVG-20010904/DTD/svg10.dtd">
<svg version="1.0" xmlns="http://www.w3.org/2000/svg"
 width="559.000000pt" height="559.000000pt" viewBox="0 0 559.000000 559.000000"
 preserveAspectRatio="xMidYMid meet">
<metadata>
Created by potrace 1.14, written by Peter Selinger 2001-2017
</metadata>
<g transform="translate(0.000000,559.000000) scale(0.100000,-0.100000)"
fill="#000000" stroke="none">
<path d="M2721 3694 c-391 -587 -486 -723 -495 -712 -7 7 -113 133 -236 281
-122 147 -226 269 -230 272 -4 2 -55 -62 -113 -143 -100 -138 -489 -673 -521
-717 -8 -11 -258 -354 -555 -763 l-540 -742 2745 0 2746 0 -48 68 c-26 37 -57
81 -68 97 -12 17 -24 32 -27 35 -3 3 -18 23 -32 45 -15 22 -48 69 -73 105 -63
87 -986 1388 -1296 1825 -136 193 -254 359 -262 370 -21 28 -325 457 -421 593
-43 61 -82 112 -85 112 -3 0 -223 -327 -489 -726z m648 176 c64 -91 137 -194
162 -230 25 -36 241 -339 479 -675 238 -335 497 -700 575 -810 78 -110 237
-334 353 -497 179 -253 208 -298 189 -299 -141 -5 -4703 0 -4706 5 -4 9 1337
1856 1348 1856 4 0 114 -129 245 -286 131 -157 242 -282 246 -278 4 5 220 328
481 718 l472 709 20 -24 c10 -13 72 -98 136 -189z"/>
<path d="M2926 3304 c-217 -348 -276 -448 -265 -455 114 -73 151 -92 160 -78
5 8 44 70 86 139 43 69 81 127 85 128 4 2 8 7 8 12 0 6 202 334 214 347 2 2
112 -162 246 -363 135 -201 248 -368 252 -370 4 -3 41 18 83 46 63 42 74 54
66 68 -21 39 -642 967 -649 969 -4 2 -132 -198 -286 -443z"/>
<path d="M1332 2283 l-421 -578 27 -20 c14 -11 50 -37 78 -57 l52 -38 318 438
c175 240 332 456 350 480 l33 43 18 -21 c10 -13 25 -30 34 -39 8 -9 64 -74
125 -146 60 -71 119 -141 131 -155 12 -14 30 -36 41 -50 l20 -24 33 26 c95 74
112 94 100 116 -6 11 -17 26 -24 34 -7 7 -118 137 -247 288 -128 151 -236 276
-240 278 -4 1 -196 -257 -428 -575z"/>
</g>
</svg>
