<svg xmlns="http://www.w3.org/2000/svg" version="1.1" width="1500" height="1500" viewBox="0 0 1500 1500">
    <rect width="1500" height="500" fill="#525252"/>
    <g transform="matrix(0.6666666666666666,0,0,0.6666666666666666,249.39393939393938,642.1081637614785)">
      <svg viewBox="0 0 396 86" data-background-color="#525252" preserveAspectRatio="xMidYMid meet" height="325" width="1500" xmlns="http://www.w3.org/2000/svg" xmlns:xlink="http://www.w3.org/1999/xlink">
        <g id="tight-bounds" transform="matrix(1,0,0,1,0.2400000000000091,-0.1752403853253668)">
          <svg viewBox="0 0 395.52 86.35048077065072" height="86.35048077065072" width="395.52">
            <g>
              <svg viewBox="0 0 653.2845067045263 142.62598916351448" height="86.35048077065072" width="395.52">
                <g transform="matrix(1,0,0,1,257.7645067045263,34.454924196313144)">
                  <svg viewBox="0 0 395.52 73.71614077088819" height="73.71614077088819" width="395.52">
                    <g id="textblocktransform">
                      <svg viewBox="0 0 395.52 73.71614077088819" height="73.71614077088819" width="395.52" id="textblock">
                        <g>
                          <svg viewBox="0 0 395.52 73.71614077088819" height="73.71614077088819" width="395.52">
                            <g transform="matrix(1,0,0,1,0,0)">
                              <svg width="395.52" viewBox="3.25 -37.5 203.94 38.01" height="73.71614077088819" data-palette-color="#e2f1dd">
                                <path d="M15.5-26.42L15.5-32.86 9.64-32.86 9.64-26.42 3.25-26.42 3.25-22.05 9.64-22.05 9.64-9.06Q9.64-6.52 10.31-4.71 10.99-2.91 12.18-1.76L12.18-1.76Q13.38-0.59 15.05-0.04 16.72 0.51 18.73 0.51L18.73 0.51Q19.82 0.51 20.94 0.4 22.05 0.29 23.07 0.1L23.07 0.1Q24.1-0.1 24.99-0.38 25.88-0.66 26.51-1.05L26.51-1.05 25.88-5.08Q25.44-4.98 24.79-4.85 24.15-4.71 23.41-4.61L23.41-4.61Q22.66-4.49 21.85-4.42 21.04-4.35 20.29-4.35L20.29-4.35Q19.24-4.35 18.36-4.59 17.48-4.83 16.85-5.42L16.85-5.42Q16.21-5.98 15.86-6.97 15.5-7.96 15.5-9.42L15.5-9.42 15.5-22.05 25.44-22.05 25.44-26.42 15.5-26.42ZM52.05-26.9L52.05-26.9Q49.31-26.9 47.06-25.63 44.8-24.37 43.19-22.14L43.19-22.14 43.16-22.75 42.92-26.42 37.45-26.42 37.45 0 43.28 0 43.28-16.31Q43.75-17.48 44.43-18.38 45.11-19.29 46.09-19.87L46.09-19.87Q46.99-20.48 48.17-20.78 49.34-21.07 50.8-21.07L50.8-21.07Q52.1-21.07 53.4-20.92 54.71-20.78 56.05-20.48L56.05-20.48 56.88-26.25Q56.13-26.51 54.79-26.71 53.46-26.9 52.05-26.9ZM80.66 0L80.66 0 86.62 0 86.62-0.42Q86.13-1.44 85.87-2.87 85.62-4.3 85.62-6.08L85.62-6.08 85.62-17.82Q85.62-20.07 84.79-21.79 83.95-23.51 82.49-24.63L82.49-24.63Q81.03-25.76 79.01-26.33 77-26.9 74.68-26.9L74.68-26.9Q72.09-26.9 70.08-26.23 68.06-25.56 66.69-24.41L66.69-24.41Q65.28-23.29 64.55-21.83 63.81-20.36 63.79-18.77L63.79-18.77 69.65-18.77Q69.65-19.53 69.93-20.2 70.21-20.87 70.8-21.34L70.8-21.34Q71.38-21.85 72.27-22.14 73.16-22.44 74.36-22.44L74.36-22.44Q75.68-22.44 76.69-22.11 77.7-21.78 78.41-21.17L78.41-21.17Q79.07-20.56 79.43-19.73 79.78-18.9 79.78-17.87L79.78-17.87 79.78-16.09 75.53-16.09Q72.68-16.09 70.42-15.55 68.16-15.01 66.62-13.99L66.62-13.99Q64.96-12.89 64.09-11.22 63.23-9.55 63.23-7.37L63.23-7.37Q63.23-5.69 63.9-4.24 64.57-2.78 65.79-1.76L65.79-1.76Q66.99-0.71 68.68-0.11 70.38 0.49 72.43 0.49L72.43 0.49Q73.7 0.49 74.8 0.24 75.9 0 76.85-0.44L76.85-0.44Q77.8-0.85 78.57-1.43 79.34-2 79.95-2.64L79.95-2.64Q80.07-1.88 80.23-1.18 80.39-0.49 80.66 0ZM73.55-4.2L73.55-4.2Q72.43-4.2 71.6-4.48 70.77-4.76 70.21-5.25L70.21-5.25Q69.65-5.74 69.36-6.43 69.06-7.13 69.06-7.93L69.06-7.93Q69.06-8.91 69.42-9.69 69.77-10.47 70.5-11.04L70.5-11.04Q71.33-11.69 72.72-12.05 74.12-12.4 76.02-12.4L76.02-12.4 79.78-12.4 79.78-7.52Q79.46-6.88 78.88-6.3 78.29-5.71 77.49-5.25L77.49-5.25Q76.68-4.79 75.69-4.49 74.7-4.2 73.55-4.2ZM105.29-4.2L105.29-4.2Q103.46-4.2 102.24-4.93 101.02-5.66 100.31-6.88L100.31-6.88Q99.58-8.06 99.27-9.61 98.97-11.16 98.97-12.77L98.97-12.77 98.97-13.62Q98.97-15.21 99.27-16.75 99.58-18.29 100.33-19.48L100.33-19.48Q101.04-20.68 102.25-21.42 103.46-22.17 105.29-22.17L105.29-22.17Q106.49-22.17 107.52-21.75 108.56-21.34 109.32-20.63L109.32-20.63Q110.05-19.92 110.45-18.97 110.86-18.02 110.86-16.94L110.86-16.94 116.35-16.94Q116.37-19.14 115.56-20.97 114.74-22.8 113.27-24.12L113.27-24.12Q111.81-25.44 109.77-26.17 107.73-26.9 105.34-26.9L105.34-26.9Q102.31-26.9 100.03-25.84 97.75-24.78 96.21-22.97L96.21-22.97Q94.67-21.17 93.9-18.75 93.13-16.33 93.13-13.62L93.13-13.62 93.13-12.77Q93.13-10.03 93.91-7.63 94.69-5.22 96.23-3.42L96.23-3.42Q97.75-1.61 100.03-0.55 102.31 0.51 105.36 0.51L105.36 0.51Q107.56 0.51 109.55-0.21 111.54-0.93 113.08-2.2L113.08-2.2Q114.59-3.42 115.48-5.11 116.37-6.81 116.35-8.74L116.35-8.74 110.86-8.74Q110.86-7.74 110.41-6.91 109.95-6.08 109.2-5.47L109.2-5.47Q108.42-4.86 107.4-4.53 106.39-4.2 105.29-4.2ZM129.7-8.5L132.88-11.5 141.3 0 148.53 0 136.76-15.41 147.04-26.42 140-26.42 132.12-18.12 129.7-15.43 129.7-37.5 123.84-37.5 123.84 0 129.7 0 129.7-8.5ZM169.15-26.42L155.14-26.42 155.14-21.56 163.27-21.56 163.27-4.83 155.14-4.83 155.14 0 176.92 0 176.92-4.83 169.15-4.83 169.15-26.42ZM162.73-33.25L162.73-33.25Q162.73-32.32 163.18-31.63 163.63-30.93 164.51-30.66L164.51-30.66Q165.37-30.4 166.08-30.54 166.78-30.69 167.3-31.15L167.3-31.15Q168.32-31.42 168.86-32.21 169.4-33.01 169.23-34.08L169.23-34.08Q169.1-35.13 168.29-35.8 167.47-36.47 166.15-36.47L166.15-36.47Q165.37-36.47 164.75-36.24 164.12-36.01 163.68-35.6L163.68-35.6Q163.22-35.16 162.98-34.56 162.73-33.96 162.73-33.25ZM196.13 0.49L196.13 0.49Q199.99 0.49 202.71-1.03 205.43-2.54 206.75-4.44L206.75-4.44 203.62-7.47Q202.4-5.91 200.52-5.07 198.64-4.22 196.47-4.22L196.47-4.22Q194.88-4.22 193.55-4.76 192.22-5.3 191.24-6.27L191.24-6.27Q190.27-7.2 189.71-8.37 189.15-9.55 188.88-11.28L188.88-11.28 188.88-11.4 207.19-11.4 207.19-13.92Q207.19-16.75 206.43-19.14 205.67-21.53 204.18-23.27L204.18-23.27Q202.69-24.98 200.5-25.94 198.3-26.9 195.44-26.9L195.44-26.9Q192.88-26.9 190.62-25.94 188.36-24.98 186.65-23.19L186.65-23.19Q184.95-21.41 183.97-18.9 182.99-16.38 182.99-13.28L182.99-13.28 182.99-12.28Q182.99-9.57 183.93-7.24 184.87-4.91 186.61-3.2L186.61-3.2Q188.34-1.46 190.77-0.49 193.2 0.49 196.13 0.49ZM195.42-22.17L195.42-22.17Q196.88-22.17 198-21.67 199.11-21.17 199.84-20.34L199.84-20.34Q200.6-19.48 201.01-18.35 201.43-17.21 201.43-16.06L201.43-16.06 201.43-15.67 189-15.67Q189.27-17.19 189.83-18.38 190.39-19.58 191.22-20.43L191.22-20.43Q192.05-21.26 193.11-21.72 194.17-22.17 195.42-22.17Z" opacity="1" transform="matrix(1,0,0,1,0,0)" fill="#e2f1dd" class="wordmark-text-0" data-fill-palette-color="primary" id="text-0"/>
                              </svg>
                            </g>
                          </svg>
                        </g>
                      </svg>
                    </g>
                  </svg>
                </g>
                <g>
                  <svg viewBox="0 0 240.36189505589812 142.62598916351448" height="142.62598916351448" width="240.36189505589812">
                    <g>
                      <svg xmlns="http://www.w3.org/2000/svg" xmlns:xlink="http://www.w3.org/1999/xlink" version="1.1" x="0" y="0" viewBox="8.811 24.796000000000003 85.35 50.644999999999996" enable-background="new 0 0 100 100" xml:space="preserve" height="142.62598916351448" width="240.36189505589812" class="icon-icon-0" data-fill-palette-color="accent" id="icon-0">
                        <g fill="#34d399" data-fill-palette-color="accent">
                          <g fill="#34d399" data-fill-palette-color="accent">
                            <g fill="#34d399" data-fill-palette-color="accent">
                              <path d="M94.161 75.441H8.811l26.865-36.939 7.447 8.936 15.095-22.642L94.161 75.441zM14.703 72.441h73.65L58.296 30.086 43.391 52.444l-7.553-9.064L14.703 72.441z" fill="#34d399" data-fill-palette-color="accent"/>
                            </g>
                            <g fill="#34d399" data-fill-palette-color="accent">
                              <polygon points="24.97,68.823 22.544,67.059 35.666,49.015 43.901,58.721 41.613,60.661 35.848,53.867    " fill="#34d399" data-fill-palette-color="accent"/>
                            </g>
                            <g fill="#34d399" data-fill-palette-color="accent">
                              <polygon points="66.009,52.273 58.298,40.707 52.029,50.736 49.485,49.146 58.216,35.175 68.505,50.609    " fill="#34d399" data-fill-palette-color="accent"/>
                            </g>
                          </g>
                        </g>
                      </svg>
                    </g>
                  </svg>
                </g>
              </svg>
            </g>
            <defs/>
          </svg>
          <rect width="395.52" height="86.35048077065072" fill="none" stroke="none" visibility="hidden"/>
        </g>
      </svg>
    </g>
  </svg>